{"title":"Under.the.Dome.S03E12.HDTV.480p.x264.AAC-VYTO [P2PDL]","uid":12347788,"size":152903283,"categoryP":"video","categoryS":"tv_shows","magnet":"?xt=urn:btih:7dcc820729c8df2bbf194803c64b7c49ae93f5b3&amp;dn=Under.the.Dome.S03E12.HDTV.480p.x264.AAC-VYTO+%5BP2PDL%5D&amp;tr=udp%3A%2F%2Ftracker.openbittorrent.com%3A80&amp;tr=udp%3A%2F%2Fopen.demonii.com%3A1337&amp;tr=udp%3A%2F%2Ftracker.coppersurfer.tk%3A6969&amp;tr=udp%3A%2F%2Fexodus.desync.com%3A6969","seeders":6,"leechers":3,"uploader":"ValidusVyto","files":6,"time":1441376588,"description":"____    ____ ____    ____ .___________.  ______   \n     /   /      /   / |           | /  __    \n    /   /      /   /  `---|  |----`|  |  |  | \n        /     _    _/       |  |     |  |  |  | \n       /        |  |         |  |     |  `--'  | \n    __/         |__|         |__|      ______/  \n                                                  \nPresenting Small Encodes with quality for years!\n                                                                                                   \n                                                                                                   \n\nUnder.the.Dome.S03E12.HDTV.480p.x264.AAC-VYTO\n\n\nGeneral\nFormat                         : MPEG-4\nFile size                      : 141 MiB\nDuration                       : 42mn 11s\nOverall bit rate               : 468 Kbps\n\nVideo\nFormat                         : AVC\nBit rate                       : 433 Kbps\nWidth                          : 720 pixels\nHeight                         : 400 pixels\nDisplay aspect ratio           : 16:9\nFrame rate mode                : Constant\nFrame rate                     : 23.976 fps\nBit depth                      : 8 bits\nStream size                    : 131 MiB (92%)\nWriting library                : x264 core 148 r259\n\nAudio\nFormat                         : AAC\nBit rate mode                  : Variable\nBit rate                       : 32.0 Kbps\nChannel(s)                     : 2 channels\nChannel positions              : Front: L R\nSampling rate                  : 48.0 KHz\nStream size                    : 9.65 MiB (7%)\n\n\nScreenshots:\n &lt;a href=&quot;\nhttp://ititli.com/Vc&quot; rel=&quot;nofollow&quot; target=&quot;_NEW&quot;&gt;\nhttp://ititli.com/Vc&lt;/a&gt; &lt;a href=&quot;\nhttp://ititli.com/Vi&quot; rel=&quot;nofollow&quot; target=&quot;_NEW&quot;&gt;\nhttp://ititli.com/Vi&lt;/a&gt; &lt;a href=&quot;\nhttp://ititli.com/Vp&quot; rel=&quot;nofollow&quot; target=&quot;_NEW&quot;&gt;\nhttp://ititli.com/Vp&lt;/a&gt; &lt;a href=&quot;\nhttp://ititli.com/VD&quot; rel=&quot;nofollow&quot; target=&quot;_NEW&quot;&gt;\nhttp://ititli.com/VD&lt;/a&gt; &lt;a href=&quot;\nhttp://ititli.com/Va&quot; rel=&quot;nofollow&quot; target=&quot;_NEW&quot;&gt;\nhttp://ititli.com/Va&lt;/a&gt; &lt;a href=&quot;\nhttp://ititli.com/Vb&quot; rel=&quot;nofollow&quot; target=&quot;_NEW&quot;&gt;\nhttp://ititli.com/Vb&lt;/a&gt; &lt;a href=&quot;\nhttp://ititli.com/Vz&quot; rel=&quot;nofollow&quot; target=&quot;_NEW&quot;&gt;\nhttp://ititli.com/Vz&lt;/a&gt; &lt;a href=&quot;\nhttp://ititli.com/VI&quot; rel=&quot;nofollow&quot; target=&quot;_NEW&quot;&gt;\nhttp://ititli.com/VI&lt;/a&gt; &lt;a href=&quot;\nhttp://ititli.com/VO&quot; rel=&quot;nofollow&quot; target=&quot;_NEW&quot;&gt;\nhttp://ititli.com/VO&lt;/a&gt; &lt;a href=&quot;\nhttp://ititli.com/t9&quot; rel=&quot;nofollow&quot; target=&quot;_NEW&quot;&gt;\nhttp://ititli.com/t9&lt;/a&gt; &lt;a href=&quot;\nhttp://ititli.com/tX&quot; rel=&quot;nofollow&quot; target=&quot;_NEW&quot;&gt;\nhttp://ititli.com/tX&lt;/a&gt; &lt;a href=&quot;\nhttp://ititli.com/tq&quot; rel=&quot;nofollow&quot; target=&quot;_NEW&quot;&gt;\nhttp://ititli.com/tq&lt;/a&gt; &lt;a href=&quot;\nhttp://ititli.com/tr&quot; rel=&quot;nofollow&quot; target=&quot;_NEW&quot;&gt;\nhttp://ititli.com/tr&lt;/a&gt; &lt;a href=&quot;\nhttp://ititli.com/t1&quot; rel=&quot;nofollow&quot; target=&quot;_NEW&quot;&gt;\nhttp://ititli.com/t1&lt;/a&gt; &lt;a href=&quot;\nhttp://ititli.com/tT&quot; rel=&quot;nofollow&quot; target=&quot;_NEW&quot;&gt;\nhttp://ititli.com/tT&lt;/a&gt;\n\n----------------------------------------------------------------------------------------------------\n\n\nEncoder Notes: Looking For Early Access To Anything You Can Provide DVDScr, R5, DVDR, BluRay, Direct\nAudio, Music Releases and Seedboxes. If You Got anything to offer please contact us.\n\nSupport us by donating BC - 1FgwdzPsd1y25Gea8wP1qni35uGCtmkRCD","torrent":{"xt":"urn:btih:7dcc820729c8df2bbf194803c64b7c49ae93f5b3","amp;dn":"Under.the.Dome.S03E12.HDTV.480p.x264.AAC-VYTO+%5BP2PDL%5D","amp;tr":["udp%3A%2F%2Ftracker.openbittorrent.com%3A80","udp%3A%2F%2Fopen.demonii.com%3A1337","udp%3A%2F%2Ftracker.coppersurfer.tk%3A6969","udp%3A%2F%2Fexodus.desync.com%3A6969"],"infoHash":"7dcc820729c8df2bbf194803c64b7c49ae93f5b3","infoHashBuffer":{"type":"Buffer","data":[125,204,130,7,41,200,223,43,191,25,72,3,198,75,124,73,174,147,245,179]},"announce":[],"urlList":[]}}